<svg width="44" height="45" viewBox="0 0 44 45" fill="none" xmlns="http://www.w3.org/2000/svg">
<mask id="mask0_63_169" style="mask-type:alpha" maskUnits="userSpaceOnUse" x="-1" y="0" width="45" height="45">
<path d="M43.0837 0H-0.425781V45H43.0837V0Z" fill="#D9D9D9"/>
</mask>
<g mask="url(#mask0_63_169)">
<path d="M23.6001 33.2983C22.8422 36.9177 21.8229 39.2571 21.0849 40.2363C20.3469 39.2571 19.3309 36.9177 18.573 33.2983C18.4274 32.6098 18.2917 31.8712 18.1693 31.0925C18.1461 30.9522 18.1263 30.8152 18.1064 30.6781C17.9806 29.8359 17.8714 28.9436 17.7755 28.0045C17.7755 27.9009 17.7556 27.7973 17.7457 27.6937C17.6795 26.9484 17.6232 26.1731 17.5835 25.3543C17.5603 24.9299 17.5405 24.4987 17.5306 24.0542C17.5206 23.6098 17.5107 23.1419 17.5041 22.6706C17.5041 22.4701 17.5041 22.2729 17.5041 22.0691C17.5041 21.8652 17.5041 21.668 17.5041 21.4675C17.5041 20.9963 17.5041 20.5351 17.5306 20.0806C17.5306 19.713 17.5537 19.3554 17.5736 19.0011C17.577 18.941 17.577 18.8807 17.5736 18.8206C17.5752 18.8028 17.5752 18.7849 17.5736 18.7672C17.5531 18.3836 17.3861 18.023 17.1077 17.7612C16.8294 17.4995 16.4613 17.3569 16.081 17.3635C15.7837 17.3631 15.4928 17.4502 15.2437 17.6142L15.1147 17.691C14.8201 17.8715 14.5289 18.052 14.2443 18.2358C13.9597 18.4196 13.7479 18.57 13.503 18.717C12.9635 19.0512 12.4439 19.4155 11.9376 19.7731C11.8184 19.8533 11.7026 19.9335 11.5835 20.0204C10.6138 20.6888 9.70373 21.3873 8.8499 22.0691C8.24427 22.5537 7.67173 23.0316 7.13229 23.5128C2.7605 27.3862 0.520003 30.9856 1.69817 32.9674C2.28725 33.97 3.68384 34.4346 5.62318 34.4346C7.56252 34.4346 10.028 33.9734 12.8311 33.0978C12.8113 32.9741 12.7881 32.8471 12.7683 32.7301C12.6061 31.791 12.4671 30.8152 12.3546 29.8159C9.4125 30.7751 7.09919 31.1728 5.62318 31.1728C5.34188 31.1728 5.11352 31.1728 4.9315 31.1427C5.44116 30.0264 7.01315 28.0212 9.83611 25.5648C10.3788 25.097 10.9646 24.6157 11.6 24.1211C11.7092 24.0308 11.8251 23.9473 11.931 23.8571C12.616 23.3357 13.3573 22.7976 14.1483 22.2562C14.1483 23.1552 14.1715 24.0409 14.2079 24.9065C14.2079 25.2407 14.2343 25.5749 14.2542 25.9091C14.2741 26.2433 14.2906 26.4939 14.3105 26.788C14.3535 27.4096 14.4031 28.0212 14.466 28.6228C14.466 28.7698 14.4958 28.9102 14.5123 29.0539C14.6348 30.2069 14.787 31.3165 14.969 32.3759C15.0981 33.1278 15.2371 33.8497 15.396 34.5449C16.6469 40.1795 18.7253 43.8658 21.0783 43.8658C23.4313 43.8658 25.513 40.1895 26.7672 34.5449L26.4032 34.4145C25.513 34.087 24.5698 33.7027 23.6001 33.2983Z" fill="#ED1C24"/>
<path d="M11.2429 19.2767C8.52138 16.8337 7.02672 14.7971 6.55657 13.6756C7.76378 13.5216 10.2748 13.7994 13.7532 14.9327C14.4155 15.147 15.1159 15.3946 15.844 15.6735C15.9757 15.7228 16.103 15.7734 16.2303 15.8239C17.0144 16.1313 17.8332 16.4778 18.6854 16.8588C18.7742 16.91 18.8728 16.944 18.9665 16.9866C19.6379 17.2976 20.33 17.6321 21.0512 18.0023C21.4263 18.192 21.8054 18.3878 22.1911 18.5988C22.5767 18.8098 22.9824 19.0324 23.3893 19.2595C23.5611 19.3586 23.7299 19.456 23.9045 19.5567C24.0791 19.6574 24.248 19.7548 24.4198 19.8539C24.8234 20.0867 25.2184 20.3146 25.5944 20.562C25.9093 20.7436 26.204 20.9403 26.4975 21.1325C26.5473 21.1651 26.5989 21.1949 26.6521 21.2216C26.6665 21.2318 26.6818 21.2407 26.6979 21.248C27.0366 21.4198 27.4288 21.4537 27.792 21.3425C28.1552 21.2312 28.4611 20.9836 28.6454 20.6517C28.7942 20.3951 28.8649 20.1006 28.8488 19.8044L28.8474 19.6549C28.8399 19.3112 28.8308 18.9704 28.8155 18.6336C28.8002 18.2969 28.7771 18.0395 28.7735 17.7553C28.7566 17.124 28.7041 16.495 28.6507 15.8808C28.6415 15.7382 28.6306 15.5985 28.6157 15.4526C28.5274 14.2845 28.3836 13.153 28.2261 12.0783C28.1135 11.3155 27.99 10.5847 27.8472 9.88077C26.7128 4.18933 24.7488 0.474993 22.4631 0.513976C21.3102 0.527688 20.215 1.50502 19.2466 3.18087C18.2781 4.85672 17.442 7.21512 16.7922 10.07C16.908 10.1139 17.0283 10.1566 17.1384 10.1973C18.0237 10.5211 18.9289 10.8831 19.841 11.2796C20.4886 8.26331 21.3032 6.06783 22.0402 4.79235C22.1807 4.54927 22.2947 4.35194 22.4114 4.20951C23.1129 5.20139 24.0454 7.55047 24.7396 11.2035C24.8693 11.9036 24.9889 12.6476 25.0953 13.441C25.118 13.58 25.1317 13.7213 25.1561 13.8574C25.2606 14.707 25.3512 15.6134 25.42 16.5644C24.65 16.1202 23.8799 15.7027 23.1204 15.3065C22.8341 15.1414 22.5347 14.9992 22.2385 14.8512C21.9424 14.7033 21.7194 14.5938 21.4576 14.4656C20.9037 14.1957 20.3551 13.9364 19.8085 13.6936C19.6826 13.6209 19.5475 13.5773 19.4161 13.5206C18.3675 13.0568 17.3411 12.6402 16.3429 12.2741C15.6344 12.0141 14.9467 11.7776 14.272 11.5714C8.82136 9.86862 4.62633 9.84341 3.45133 11.8768C2.27634 13.9101 4.38548 17.5251 8.5937 21.3977L8.88712 21.1475C9.61218 20.54 10.4123 19.9149 11.2429 19.2767Z" fill="#ED1C24"/>
<path d="M35.4531 23.8417L35.1529 24.0786C34.3624 24.706 33.5519 25.3133 32.7414 25.8873C35.5865 28.3401 37.1675 30.3424 37.6845 31.4537C37.5011 31.4537 37.2709 31.4837 36.9874 31.4837C35.4965 31.4837 33.1683 31.0866 30.2065 30.1288C29.5127 29.9063 28.7856 29.6516 28.0251 29.3646L27.6148 29.2078C26.7943 28.8941 25.9471 28.5403 25.0566 28.1399C25.8637 27.6949 26.6487 27.2389 27.4114 26.7717L28.2819 26.2244C28.5388 26.0675 28.7856 25.8907 29.0324 25.7472C29.5727 25.4135 30.0997 25.0464 30.6067 24.6893L30.967 24.4457C31.9409 23.7783 32.8615 23.0775 33.722 22.4C34.3291 21.915 34.9061 21.4334 35.4531 20.9551C39.8759 17.0907 42.124 13.4999 40.9466 11.5177C40.3495 10.5165 38.9453 10.0527 36.9874 10.0527C35.0295 10.0527 32.5513 10.5132 29.7228 11.3875C29.7429 11.511 29.7695 11.6378 29.7895 11.7579C29.953 12.6957 30.0931 13.6734 30.2065 14.6646C33.1683 13.7102 35.4965 13.323 36.9874 13.323C37.2202 13.3216 37.4529 13.3328 37.6845 13.3564C37.1709 14.4677 35.5899 16.4833 32.7414 18.9194C32.1977 19.3899 31.6074 19.8672 30.967 20.3644L30.6334 20.6247C29.9463 21.1453 29.1958 21.6825 28.402 22.2232C28.3086 22.2899 28.2186 22.35 28.1252 22.41C27.487 22.855 26.8199 23.2888 26.1239 23.7115C25.757 23.9418 25.3834 24.1654 24.9999 24.3789C24.6163 24.5925 24.1827 24.8628 23.7624 25.0998C23.5823 25.2066 23.4022 25.3033 23.2254 25.4034L22.6817 25.7004C22.2581 25.934 21.8345 26.1576 21.421 26.3679C21.0074 26.5781 20.6705 26.7583 20.3036 26.9419L20.2435 26.9686C20.0227 27.0924 19.8389 27.2728 19.711 27.4913C19.583 27.7097 19.5156 27.9584 19.5156 28.2116C19.5156 28.4649 19.583 28.7135 19.711 28.932C19.8389 29.1505 20.0227 29.3309 20.2435 29.4547L20.2702 29.4714L20.3469 29.5081C20.3592 29.5167 20.3727 29.5235 20.387 29.5281L20.5004 29.5882L21.421 30.042L22.2281 30.4292C22.8152 30.7061 23.3922 30.9698 23.9659 31.2167L24.3628 31.3936C25.4746 31.8675 26.5475 32.2924 27.5815 32.6684C28.322 32.9353 29.0424 33.179 29.7429 33.3925C32.5713 34.2702 35.0795 34.7274 37.0074 34.7274C38.9353 34.7274 40.3695 34.2568 40.9666 33.2624C42.1306 31.3001 39.8759 27.7061 35.4531 23.8417Z" fill="#ED1C24"/>
</g>
</svg>
