<svg width="117" height="46" viewBox="0 0 117 46" fill="none" xmlns="http://www.w3.org/2000/svg">
<g clip-path="url(#clip0_63_141)">
<mask id="mask0_63_141" style="mask-type:luminance" maskUnits="userSpaceOnUse" x="0" y="0" width="117" height="46">
<path d="M117 0H0V46H117V0Z" fill="white"/>
</mask>
<g mask="url(#mask0_63_141)">
<path d="M48.4271 26.5722C48.1892 26.3375 48.0023 26.0567 47.8779 25.7471C47.7535 25.4375 47.6944 25.1058 47.7042 24.7725C47.7155 24.1588 47.8598 23.5547 48.1271 23.0016L54.106 9.70554C54.2587 9.31202 54.5208 8.96993 54.8615 8.71931C55.2095 8.51189 55.6074 8.40234 56.0129 8.40234C56.4184 8.40234 56.8163 8.51189 57.1642 8.71931C57.5026 8.96848 57.7632 9.3079 57.9161 9.69834L63.8986 23.0052C64.1633 23.549 64.3075 24.1432 64.3216 24.7473C64.3327 25.0845 64.2742 25.4204 64.1499 25.7343C64.0256 26.0482 63.8379 26.3333 63.5986 26.5722C63.0503 27.0786 62.3363 27.3701 61.5888 27.3929L59.3692 22.5553H52.6312L50.4081 27.3929C49.6698 27.3668 48.9661 27.0753 48.4271 26.5722ZM58.1872 19.2223L55.4652 12.4555L55.1037 12.6138L55.8267 14.3847L53.8169 19.2223H58.1872Z" fill="white"/>
<path d="M69.3197 11.8118H62.8672C62.8672 9.54666 63.8938 8.41406 65.9471 8.41406H79.6834C79.6834 10.6768 78.6568 11.8094 76.6036 11.8118H73.2526V24.5572C73.2764 24.9652 73.1973 25.3726 73.0224 25.7423C72.8475 26.1119 72.5824 26.4321 72.2513 26.6736C71.579 27.156 70.603 27.3935 69.3161 27.3935L69.3197 11.8118Z" fill="white"/>
<path d="M84.9568 26.5332C83.8092 26.0169 82.8136 25.2164 82.0649 24.208C81.3684 23.2998 80.9878 22.1905 80.9805 21.0478V14.7561C80.9878 13.6144 81.3685 12.5063 82.0649 11.5994C82.8144 10.591 83.8097 9.78952 84.9568 9.27066C86.2115 8.70607 87.5725 8.41406 88.9494 8.41406C90.3262 8.41406 91.6873 8.70607 92.942 9.27066C94.0891 9.78952 95.0844 10.591 95.8338 11.5994C96.5303 12.5063 96.911 13.6144 96.9183 14.7561V21.0478C96.911 22.1905 96.5303 23.2998 95.8338 24.208C95.0852 25.2164 94.0896 26.0169 92.942 26.5332C91.6879 27.1001 90.3266 27.3933 88.9494 27.3933C87.5721 27.3933 86.2108 27.1001 84.9568 26.5332ZM91.8864 23.1642C92.2418 22.9189 92.5312 22.5903 92.7291 22.2074C92.9271 21.8246 93.0275 21.3991 93.0215 20.9686V14.8389C93.0272 14.4088 92.9266 13.984 92.7287 13.6018C92.5308 13.2195 92.2415 12.8916 91.8864 12.6468C91.0073 12.0942 89.989 11.8009 88.9494 11.8009C87.9098 11.8009 86.8914 12.0942 86.0123 12.6468C85.6552 12.8904 85.3638 13.2178 85.164 13.6001C84.9641 13.9824 84.8619 14.4079 84.8664 14.8389V20.9578C84.8604 21.3884 84.9608 21.8138 85.1588 22.1966C85.3567 22.5795 85.6461 22.9081 86.0015 23.1534C86.8806 23.706 87.8989 23.9993 88.9385 23.9993C89.9781 23.9993 90.9965 23.706 91.8756 23.1534L91.8864 23.1642Z" fill="white"/>
<path d="M98.6177 11.2391C98.6095 10.8327 98.7026 10.4306 98.8887 10.0688C99.0748 9.7069 99.3481 9.39668 99.6841 9.16583C100.518 8.60846 101.511 8.33449 102.514 8.38477L107.803 21.8681L107.145 23.6678L107.434 23.8009L113.12 8.41716C114.123 8.36476 115.116 8.63619 115.951 9.19103C116.286 9.42325 116.558 9.73445 116.743 10.0969C116.927 10.4593 117.019 10.8616 117.01 11.2679V27.3931C114.487 27.3931 113.225 26.4681 113.225 24.618V17.0593L114.179 14.4174L113.861 14.3094L109.354 26.3565C109.23 26.6584 109.019 26.9167 108.746 27.098C108.476 27.2883 108.152 27.3902 107.821 27.3895C107.483 27.3922 107.153 27.2924 106.874 27.1033C106.595 26.9142 106.381 26.6449 106.259 26.3313L101.762 14.2554L101.448 14.385L102.399 17.0305V24.618C102.399 26.4681 101.138 27.3931 98.6177 27.3931V11.2391Z" fill="white"/>
<path d="M61.2184 34.9951C61.2184 35.3011 61.0376 35.4558 60.6798 35.4558V35.0959C60.7277 35.0475 60.769 34.9931 60.8027 34.9339L60.781 34.9123C60.6687 35.0708 60.5247 35.2044 60.358 35.3047C60.1888 35.4049 59.9947 35.4561 59.7977 35.4522C59.6124 35.455 59.4294 35.4104 59.2664 35.3227C59.1139 35.2393 58.9886 35.1145 58.9049 34.9627C58.8174 34.8014 58.7726 34.6205 58.7747 34.4372V32.9111C58.7697 32.8547 58.7798 32.7981 58.804 32.7469C58.8281 32.6957 58.8654 32.6517 58.9121 32.6195C59.0428 32.5498 59.1908 32.5186 59.3387 32.5295V34.4012C59.3354 34.4757 59.3472 34.55 59.3732 34.6199C59.3993 34.6897 59.4392 34.7537 59.4905 34.8079C59.5507 34.8615 59.621 34.9024 59.6974 34.9284C59.7738 34.9543 59.8546 34.9648 59.9351 34.9591C60.1242 34.966 60.3085 34.8988 60.4484 34.772C60.5154 34.7161 60.569 34.6461 60.6052 34.567C60.6415 34.4879 60.6596 34.4018 60.6581 34.3148V32.9111C60.6534 32.8551 60.6633 32.799 60.6867 32.7479C60.7101 32.6968 60.7463 32.6526 60.7918 32.6195C60.9212 32.5497 61.068 32.5185 61.2148 32.5295L61.2184 34.9951Z" fill="#F84D54"/>
<path d="M62.3665 35.212C62.217 35.0369 62.1395 34.8119 62.1497 34.5822V31.7854C62.1447 31.7287 62.1551 31.6717 62.1799 31.6204C62.2047 31.5691 62.243 31.5254 62.2906 31.4939C62.4196 31.4226 62.5665 31.3901 62.7136 31.4003V34.5606C62.7045 34.6702 62.7367 34.7792 62.8039 34.8665C62.8433 34.9007 62.8892 34.9267 62.9389 34.9428C62.9886 34.9589 63.0411 34.9648 63.0931 34.9601C63.2319 34.9605 63.3681 34.9231 63.4871 34.8521C63.5438 34.914 63.5748 34.9951 63.5739 35.0789C63.5715 35.1311 63.5564 35.1819 63.5299 35.227C63.5035 35.2721 63.4665 35.3102 63.4221 35.338C63.3021 35.4193 63.1584 35.4585 63.0136 35.4496C62.8949 35.4591 62.7755 35.4428 62.6638 35.4018C62.5521 35.3608 62.4506 35.296 62.3665 35.212Z" fill="#F84D54"/>
<path d="M64.8395 35.211C64.699 35.0316 64.6273 34.8084 64.6371 34.5811V33.019H64.0948C64.0875 32.9017 64.1192 32.7853 64.1852 32.6878C64.2151 32.6523 64.2528 32.624 64.2955 32.6053C64.3381 32.5866 64.3845 32.5779 64.431 32.5799H64.6479V32.0651C64.6436 32.0089 64.6541 31.9525 64.6781 31.9014C64.7022 31.8503 64.7391 31.8063 64.7853 31.7736C64.911 31.7045 65.0541 31.6732 65.1974 31.6836V32.5799H65.9456C65.9557 32.6974 65.9236 32.8147 65.8553 32.911C65.8177 32.9496 65.7718 32.9794 65.7212 32.9981C65.6705 33.0168 65.6163 33.0239 65.5625 33.019H65.201V34.5595C65.1907 34.6676 65.2189 34.7759 65.2805 34.8655C65.3182 34.9001 65.3628 34.9263 65.4114 34.9424C65.46 34.9586 65.5115 34.9642 65.5625 34.959C65.6976 34.958 65.83 34.9207 65.9456 34.8511C65.9793 34.8844 66.0048 34.925 66.0202 34.9698C66.0357 35.0145 66.0406 35.0621 66.0347 35.109C66.0287 35.156 66.0121 35.2009 65.986 35.2404C65.9599 35.2799 65.9251 35.313 65.8842 35.337C65.7591 35.4188 65.6106 35.458 65.4612 35.4486C65.3465 35.4566 65.2313 35.4394 65.1239 35.3984C65.0165 35.3574 64.9194 35.2934 64.8395 35.211Z" fill="#F84D54"/>
<path d="M66.89 32.0501C66.851 32.0163 66.8196 31.9746 66.7982 31.9277C66.7767 31.8808 66.7656 31.8299 66.7656 31.7784C66.7656 31.7268 66.7767 31.6759 66.7982 31.629C66.8196 31.5821 66.851 31.5404 66.89 31.5066C66.9687 31.4346 67.0724 31.3959 67.1792 31.3986C67.231 31.3973 67.2826 31.4061 67.331 31.4246C67.3794 31.4432 67.4236 31.471 67.4612 31.5066C67.4978 31.5419 67.5269 31.5841 67.5468 31.6308C67.5667 31.6775 67.577 31.7276 67.577 31.7784C67.577 31.8291 67.5667 31.8793 67.5468 31.926C67.5269 31.9726 67.4978 32.0149 67.4612 32.0501C67.4235 32.0852 67.3791 32.1125 67.3307 32.1304C67.2823 32.1483 67.2308 32.1565 67.1792 32.1545C67.0729 32.1586 66.9691 32.1211 66.89 32.0501ZM66.89 32.9104C66.885 32.854 66.8951 32.7974 66.9192 32.7462C66.9434 32.6949 66.9807 32.651 67.0274 32.6188C67.1556 32.5493 67.3012 32.5181 67.4467 32.5288V35.0484C67.4503 35.1041 67.4396 35.1597 67.4156 35.2101C67.3916 35.2605 67.355 35.304 67.3094 35.3363C67.1823 35.4091 67.0361 35.4418 66.89 35.4299V32.9104Z" fill="#F84D54"/>
<path d="M68.3035 32.9873C68.3035 32.6814 68.4806 32.5302 68.8385 32.5302V32.8902C68.7937 32.9399 68.7526 32.9928 68.7156 33.0485L68.7445 33.0737C68.8418 32.9214 68.964 32.7863 69.106 32.6742C69.2449 32.5818 69.4089 32.5341 69.5759 32.5374C69.7293 32.5306 69.8806 32.5746 70.0062 32.6625C70.1318 32.7504 70.2246 32.8773 70.27 33.0233C70.3554 32.8723 70.4799 32.7469 70.6306 32.6601C70.7813 32.5734 70.9527 32.5285 71.1267 32.5302C71.2437 32.5244 71.3605 32.5458 71.4677 32.5926C71.575 32.6395 71.6699 32.7105 71.7448 32.8002C71.9027 33.006 71.9809 33.2615 71.9654 33.52V35.0822C71.9701 35.138 71.9598 35.194 71.9357 35.2446C71.9116 35.2952 71.8744 35.3385 71.828 35.3701C71.701 35.4429 71.5547 35.4756 71.4087 35.4637V33.556C71.4087 33.1961 71.2641 33.0197 70.9749 33.0197C70.9 33.0184 70.8255 33.032 70.756 33.0599C70.6864 33.0877 70.6232 33.1291 70.57 33.1817C70.5123 33.2403 70.4677 33.3103 70.4391 33.3872C70.4104 33.4641 70.3984 33.5462 70.4037 33.628V35.0678C70.4084 35.1237 70.3986 35.1799 70.3751 35.231C70.3517 35.282 70.3155 35.3262 70.27 35.3593C70.1443 35.4284 70.0011 35.4597 69.8579 35.4493V33.556C69.8655 33.417 69.8275 33.2793 69.7495 33.1637C69.7103 33.1142 69.6594 33.0752 69.6014 33.0501C69.5433 33.0249 69.48 33.0145 69.4169 33.0197C69.3399 33.017 69.2633 33.0314 69.1926 33.0619C69.1219 33.0924 69.059 33.1383 69.0084 33.1961C68.8982 33.3197 68.84 33.4808 68.8457 33.646V35.0858C68.8505 35.1416 68.8402 35.1976 68.8161 35.2482C68.792 35.2988 68.7548 35.3421 68.7084 35.3737C68.5814 35.4465 68.4351 35.4792 68.2891 35.4673L68.3035 32.9873Z" fill="#F84D54"/>
<path d="M73.0078 35.1931C72.9126 35.1044 72.837 34.997 72.7859 34.8776C72.7348 34.7583 72.7092 34.6296 72.711 34.4998C72.7127 34.37 72.7415 34.2421 72.7958 34.124C72.85 34.006 72.9284 33.9006 73.0259 33.8145C73.2588 33.6344 73.5483 33.5426 73.8429 33.5553C74.006 33.5501 74.1684 33.5794 74.3192 33.6415C74.47 33.7036 74.6059 33.7969 74.7176 33.9153L74.743 33.8937C74.6938 33.8417 74.642 33.7925 74.5875 33.7461V33.5553C74.5919 33.4767 74.5786 33.3981 74.5486 33.3253C74.5185 33.2524 74.4726 33.1871 74.414 33.1342C74.2738 33.0268 74.0989 32.9743 73.9224 32.9866C73.7574 32.9747 73.5923 33.0097 73.4465 33.0874C73.3006 33.1651 73.1798 33.2825 73.0982 33.4258C73.0326 33.3973 72.9745 33.3542 72.9283 33.2998C72.8882 33.2523 72.8653 33.1927 72.8632 33.1306C72.8661 33.0735 72.8811 33.0177 72.9073 32.9668C72.9334 32.9159 72.9702 32.8711 73.0151 32.8355C73.1336 32.7348 73.2713 32.6589 73.4199 32.6123C73.5953 32.5569 73.7782 32.529 73.9621 32.5295C74.2747 32.5114 74.5831 32.6074 74.8297 32.7995C74.933 32.8885 75.0151 32.9993 75.0701 33.1238C75.1251 33.2483 75.1517 33.3834 75.1478 33.5194V35.0203C75.1536 35.0791 75.1448 35.1385 75.1221 35.1931C75.0994 35.2477 75.0635 35.2959 75.0177 35.3334C74.8976 35.4072 74.7571 35.4412 74.6164 35.4306V35.1787C74.696 35.0923 74.7393 35.0419 74.7466 35.0311L74.7249 35.0095C74.6101 35.1474 74.465 35.2571 74.3007 35.3301C74.1365 35.4032 73.9575 35.4376 73.7778 35.4306C73.5008 35.4466 73.2273 35.3622 73.0078 35.1931ZM74.414 34.8871C74.4708 34.8456 74.517 34.7914 74.549 34.7289C74.5811 34.6664 74.5979 34.5973 74.5984 34.5272C74.6011 34.4529 74.5858 34.3791 74.5537 34.3121C74.5216 34.245 74.4736 34.1867 74.414 34.142C74.2654 34.041 74.0875 33.9917 73.9079 34.0017C73.7374 33.9923 73.5688 34.0419 73.4308 34.142C73.3767 34.19 73.3335 34.2488 73.3039 34.3145C73.2743 34.3803 73.259 34.4515 73.259 34.5236C73.259 34.5956 73.2743 34.6669 73.3039 34.7326C73.3335 34.7984 73.3767 34.8572 73.4308 34.9051C73.5662 35.0017 73.7309 35.0487 73.8971 35.0383C74.0811 35.0438 74.2622 34.9909 74.414 34.8871Z" fill="#F84D54"/>
<path d="M76.6207 35.211C76.4803 35.0316 76.4085 34.8084 76.4183 34.5811V33.019H75.8761C75.8687 32.9017 75.9005 32.7853 75.9665 32.6878C75.9958 32.6526 76.0329 32.6245 76.0749 32.6057C76.1169 32.587 76.1627 32.5782 76.2087 32.5799H76.4292V32.0651C76.4249 32.0089 76.4352 31.9525 76.4593 31.9014C76.4833 31.8503 76.5203 31.8063 76.5665 31.7736C76.6922 31.7045 76.8354 31.6732 76.9786 31.6836V32.5799H77.7269C77.7379 32.698 77.7043 32.816 77.6328 32.911C77.5956 32.9492 77.5504 32.9786 77.5004 32.9973C77.4504 33.016 77.3968 33.0234 77.3436 33.019H76.9822V34.5595C76.972 34.6676 77.0001 34.7759 77.0618 34.8655C77.0994 34.9001 77.1439 34.9263 77.1925 34.9424C77.2411 34.9586 77.2926 34.9642 77.3436 34.959C77.4787 34.9575 77.611 34.9202 77.7269 34.8511C77.7605 34.8844 77.786 34.925 77.8015 34.9698C77.8169 35.0145 77.8219 35.0621 77.8159 35.109C77.81 35.156 77.7932 35.2009 77.7672 35.2404C77.7411 35.2799 77.7063 35.313 77.6654 35.337C77.5394 35.4168 77.3917 35.4558 77.2425 35.4486C77.1277 35.4566 77.0126 35.4394 76.9052 35.3984C76.7978 35.3574 76.7007 35.2934 76.6207 35.211Z" fill="#F84D54"/>
<path d="M79.1436 35.3147C78.9697 35.2349 78.82 35.1108 78.7099 34.9547C78.605 34.7981 78.5496 34.6139 78.5508 34.4256V33.6194C78.5485 33.4232 78.6065 33.231 78.7171 33.0687C78.8304 32.9051 78.9833 32.7726 79.1617 32.6835C79.3489 32.5936 79.554 32.5469 79.7618 32.5469C79.9696 32.5469 80.1747 32.5936 80.3618 32.6835C80.5345 32.7638 80.6829 32.888 80.792 33.0435C80.8968 33.2066 80.9509 33.3969 80.9475 33.5906V33.9505C80.9477 33.982 80.941 34.0131 80.9279 34.0417C80.9148 34.0703 80.8955 34.0957 80.8715 34.1161C80.8229 34.1625 80.7581 34.1883 80.6908 34.1881H79.1003V34.4004C79.0966 34.481 79.1094 34.5616 79.138 34.637C79.1666 34.7125 79.2103 34.7815 79.2666 34.8396C79.4048 34.9574 79.5838 35.0168 79.7654 35.0051C79.9412 35.0166 80.1154 34.9656 80.257 34.8612C80.3118 34.8141 80.3552 34.7554 80.3839 34.6893C80.4127 34.6233 80.4262 34.5516 80.4233 34.4796C80.5383 34.4645 80.6551 34.4873 80.7559 34.5444C80.7977 34.5697 80.8319 34.6058 80.8549 34.6489C80.8778 34.692 80.8885 34.7405 80.886 34.7892C80.8842 34.852 80.8694 34.9138 80.8427 34.9708C80.8159 35.0277 80.7778 35.0786 80.7306 35.1203C80.614 35.2341 80.4731 35.3202 80.3185 35.3723C80.141 35.4353 79.9538 35.467 79.7654 35.4659C79.5492 35.4644 79.3362 35.4126 79.1436 35.3147ZM80.4341 33.7454V33.5834C80.4368 33.5024 80.4216 33.4218 80.3898 33.3472C80.358 33.2726 80.3102 33.2058 80.2498 33.1515C80.1152 33.0371 79.9421 32.9779 79.7654 32.9859C79.5885 32.9768 79.415 33.0361 79.281 33.1515C79.2211 33.206 79.1739 33.2729 79.1426 33.3475C79.1114 33.4221 79.097 33.5026 79.1003 33.5834V33.7454H80.4341Z" fill="#F84D54"/>
<path d="M84.2862 35.3561C84.1274 35.3089 83.984 35.2207 83.8705 35.1005C83.7768 35.0034 83.7227 34.8751 83.7186 34.7406C83.7186 34.5462 83.8452 34.4454 84.0801 34.4346C84.0902 34.521 84.1182 34.6043 84.1624 34.6793C84.2066 34.7543 84.266 34.8193 84.3368 34.8702C84.4871 34.9706 84.6656 35.021 84.8465 35.0141C85.0151 35.0227 85.1835 34.9919 85.3381 34.9241C85.3909 34.9017 85.4357 34.864 85.4667 34.8158C85.4976 34.7677 85.5133 34.7113 85.5116 34.6542C85.5131 34.5979 85.4995 34.5421 85.4722 34.4928C85.4449 34.4434 85.4048 34.4022 85.3562 34.3734C85.1756 34.2777 84.98 34.2132 84.7778 34.1827C84.5681 34.1374 84.3625 34.0748 84.1633 33.9955C84.0287 33.9428 83.9112 33.8544 83.8235 33.74C83.7453 33.6149 83.7063 33.4696 83.7114 33.3224C83.7111 33.1766 83.7594 33.0348 83.8488 32.9193C83.9443 32.7984 84.0685 32.7032 84.2103 32.6421C84.3907 32.571 84.5837 32.5367 84.7778 32.5414C84.9675 32.5388 85.1565 32.5655 85.3381 32.6205C85.4918 32.6619 85.6332 32.7397 85.7502 32.8473C85.8009 32.8924 85.8411 32.948 85.8679 33.0102C85.8948 33.0723 85.9076 33.1396 85.9056 33.2072C85.9056 33.3944 85.7646 33.4916 85.4863 33.5024C85.4789 33.4315 85.4567 33.3628 85.4213 33.3009C85.3858 33.2389 85.3378 33.185 85.2803 33.1425C85.1375 33.0438 84.9657 32.9957 84.7923 33.0057C84.6502 33.0003 84.5092 33.0326 84.3838 33.0993C84.3368 33.121 84.2969 33.1555 84.2688 33.1988C84.2406 33.2421 84.2254 33.2924 84.2247 33.344C84.2239 33.3936 84.237 33.4425 84.2625 33.4851C84.2881 33.5277 84.325 33.5624 84.3693 33.5852C84.5251 33.6602 84.6905 33.7135 84.8609 33.7436C85.1764 33.7923 85.4781 33.9063 85.7466 34.0783C85.838 34.1483 85.9113 34.239 85.9604 34.343C86.0094 34.4469 86.0328 34.561 86.0285 34.6758C86.0324 34.7944 86.0051 34.9119 85.9493 35.0167C85.8935 35.1215 85.8112 35.21 85.7104 35.2733C85.441 35.4286 85.132 35.5024 84.8212 35.4856C84.6372 35.4699 84.4568 35.4262 84.2862 35.3561Z" fill="#F84D54"/>
<path d="M87.5022 35.3191C87.3243 35.241 87.1707 35.1167 87.0576 34.9592C86.9518 34.8097 86.8961 34.6309 86.8985 34.4481V33.5554C86.8966 33.3687 86.9507 33.1857 87.054 33.0299C87.1661 32.8729 87.3184 32.7486 87.495 32.67C87.6974 32.5798 87.9167 32.5332 88.1384 32.5332C88.3602 32.5332 88.5794 32.5798 88.7819 32.67C88.9585 32.7486 89.1108 32.8729 89.2229 33.0299C89.33 33.1843 89.3868 33.3678 89.3855 33.5554V34.4409C89.3866 34.624 89.3297 34.8029 89.2229 34.952C89.111 35.1106 88.9571 35.2352 88.7783 35.3119C88.5768 35.4004 88.3586 35.4445 88.1384 35.4415C87.9199 35.4476 87.7027 35.4058 87.5022 35.3191ZM88.6445 34.8152C88.7053 34.7681 88.754 34.7073 88.7867 34.6379C88.8193 34.5685 88.835 34.4923 88.8325 34.4157V33.5878C88.8345 33.5086 88.8187 33.43 88.7862 33.3578C88.7536 33.2855 88.7052 33.2214 88.6445 33.1703C88.4952 33.0692 88.3189 33.0152 88.1384 33.0152C87.9579 33.0152 87.7816 33.0692 87.6324 33.1703C87.571 33.2209 87.5222 33.2849 87.4896 33.3573C87.457 33.4297 87.4415 33.5085 87.4444 33.5878V34.4157C87.442 34.4919 87.4574 34.5677 87.4894 34.637C87.5214 34.7063 87.5691 34.7673 87.6287 34.8152C87.7765 34.9213 87.9565 34.9734 88.1384 34.9628C88.3193 34.9741 88.4984 34.9219 88.6445 34.8152Z" fill="#F84D54"/>
<path d="M90.4332 35.2118C90.2862 35.0354 90.2102 34.8109 90.22 34.5819V31.7852C90.215 31.7289 90.2251 31.6722 90.2492 31.621C90.2733 31.5698 90.3106 31.5258 90.3573 31.4937C90.4878 31.4229 90.6357 31.3904 90.7839 31.4001V34.5603C90.7738 34.6695 90.8047 34.7785 90.8706 34.8663C90.9107 34.9006 90.9572 34.9266 91.0075 34.9427C91.0578 34.9588 91.1108 34.9646 91.1634 34.9598C91.3022 34.9599 91.4383 34.9225 91.5575 34.8519C91.6132 34.9142 91.6429 34.9953 91.6406 35.0786C91.6392 35.1306 91.6249 35.1815 91.5991 35.2267C91.5732 35.2719 91.5366 35.31 91.4924 35.3378C91.3722 35.4185 91.2287 35.4578 91.0839 35.4494C90.9647 35.4585 90.8449 35.442 90.7327 35.401C90.6204 35.36 90.5183 35.2955 90.4332 35.2118Z" fill="#F84D54"/>
<path d="M94.9175 34.9951C94.9175 35.301 94.7368 35.4558 94.3753 35.4558V35.0959C94.4243 35.0484 94.4658 34.9938 94.4982 34.9339L94.4765 34.9123C94.3661 35.0724 94.2217 35.2063 94.0536 35.3046C93.8887 35.3975 93.7031 35.4478 93.5136 35.4509C93.3242 35.4541 93.137 35.41 92.9691 35.3226C92.8171 35.2388 92.6918 35.1141 92.6076 34.9627C92.5202 34.8014 92.4754 34.6205 92.4775 34.4372V32.911C92.4732 32.8548 92.4837 32.7984 92.5077 32.7473C92.5318 32.6962 92.5687 32.6522 92.6149 32.6195C92.7457 32.5501 92.8936 32.519 93.0414 32.5295V34.4012C93.0382 34.4756 93.0499 34.55 93.076 34.6198C93.1021 34.6897 93.1419 34.7536 93.1932 34.8079C93.2534 34.8614 93.3238 34.9024 93.4002 34.9283C93.4765 34.9543 93.5574 34.9648 93.6379 34.9591C93.827 34.966 94.0113 34.8988 94.1512 34.7719C94.2181 34.7161 94.2717 34.6461 94.308 34.567C94.3443 34.4879 94.3623 34.4017 94.3608 34.3148V32.911C94.3569 32.8552 94.367 32.7992 94.3904 32.7483C94.4138 32.6974 94.4496 32.6531 94.4946 32.6195C94.6253 32.5498 94.7733 32.5186 94.9211 32.5295L94.9175 34.9951Z" fill="#F84D54"/>
<path d="M96.4923 35.211C96.3504 35.0324 96.2784 34.8086 96.2899 34.5811V33.019H95.7476C95.7385 32.9015 95.7705 32.7846 95.838 32.6878C95.8674 32.6526 95.9045 32.6245 95.9465 32.6057C95.9885 32.587 96.0342 32.5782 96.0802 32.5799H96.3007V32.0651C96.2961 32.0092 96.3059 31.953 96.3293 31.902C96.3528 31.8509 96.389 31.8067 96.4345 31.7736C96.5602 31.7045 96.7033 31.6732 96.8466 31.6836V32.5799H97.5985C97.6077 32.6979 97.5744 32.8153 97.5045 32.911C97.4673 32.9492 97.422 32.9786 97.372 32.9973C97.322 33.016 97.2685 33.0234 97.2153 33.019H96.8538V34.5595C96.8453 34.6675 96.8733 34.7752 96.9333 34.8655C96.971 34.9001 97.0156 34.9263 97.0642 34.9424C97.1128 34.9586 97.1643 34.9642 97.2153 34.959C97.3505 34.9585 97.483 34.9212 97.5985 34.8511C97.6283 34.8807 97.6518 34.9161 97.6673 34.9551C97.6829 34.9941 97.6902 35.0359 97.6888 35.0778C97.6864 35.13 97.6713 35.1808 97.6449 35.226C97.6184 35.2711 97.5814 35.3092 97.537 35.337C97.4119 35.4188 97.2635 35.458 97.1141 35.4486C96.9992 35.4576 96.8838 35.4409 96.7762 35.3998C96.6686 35.3587 96.5716 35.2942 96.4923 35.211Z" fill="#F84D54"/>
<path d="M98.6431 32.0501C98.6064 32.0149 98.5773 31.9727 98.5574 31.926C98.5375 31.8793 98.5273 31.8291 98.5273 31.7784C98.5273 31.7277 98.5375 31.6775 98.5574 31.6308C98.5773 31.5841 98.6064 31.5419 98.6431 31.5066C98.7219 31.435 98.8255 31.3963 98.9322 31.3986C99.038 31.3957 99.1406 31.4345 99.2178 31.5066C99.2544 31.5419 99.2836 31.5841 99.3034 31.6308C99.3233 31.6775 99.3336 31.7277 99.3336 31.7784C99.3336 31.8291 99.3233 31.8793 99.3034 31.926C99.2836 31.9727 99.2544 32.0149 99.2178 32.0501C99.1403 32.1212 99.0376 32.1588 98.9322 32.1545C98.8259 32.1582 98.7223 32.1208 98.6431 32.0501ZM98.6431 32.9104C98.6388 32.8541 98.6492 32.7977 98.6733 32.7466C98.6973 32.6956 98.7342 32.6515 98.7804 32.6188C98.9101 32.55 99.0567 32.5188 99.2034 32.5288V35.0484C99.2073 35.1045 99.1964 35.1606 99.1716 35.2112C99.1469 35.2617 99.1092 35.3049 99.0624 35.3364C98.9354 35.4091 98.7891 35.4418 98.6431 35.4299V32.9104Z" fill="#F84D54"/>
<path d="M100.771 35.319C100.594 35.2413 100.442 35.1168 100.33 34.9591C100.224 34.8099 100.167 34.6311 100.168 34.4479V33.5553C100.167 33.3683 100.222 33.1853 100.327 33.0298C100.439 32.8728 100.591 32.7485 100.768 32.6698C100.97 32.5798 101.188 32.5332 101.409 32.5332C101.631 32.5332 101.849 32.5798 102.051 32.6698C102.228 32.75 102.381 32.8739 102.496 33.0298C102.602 33.1845 102.657 33.368 102.655 33.5553V34.4407C102.657 34.6235 102.602 34.8024 102.496 34.9519C102.383 35.1094 102.229 35.2337 102.051 35.3118C101.85 35.4002 101.631 35.4444 101.411 35.4414C101.192 35.4474 100.973 35.4056 100.771 35.319ZM101.917 34.8151C101.977 34.7672 102.025 34.7062 102.057 34.6369C102.089 34.5676 102.104 34.4918 102.102 34.4155V33.5877C102.105 33.5084 102.089 33.4295 102.057 33.3572C102.024 33.2848 101.975 33.2208 101.914 33.1702C101.765 33.0694 101.589 33.0156 101.409 33.0156C101.23 33.0156 101.054 33.0694 100.905 33.1702C100.844 33.2208 100.795 33.2848 100.762 33.3572C100.73 33.4295 100.714 33.5084 100.717 33.5877V34.4155C100.715 34.4918 100.73 34.5676 100.762 34.6369C100.794 34.7062 100.842 34.7672 100.902 34.8151C101.053 34.9115 101.23 34.9628 101.409 34.9628C101.589 34.9628 101.766 34.9115 101.917 34.8151Z" fill="#F84D54"/>
<path d="M103.488 32.9861C103.488 32.6802 103.669 32.529 104.03 32.529V32.8889C103.984 32.9385 103.942 32.9914 103.904 33.0473L103.932 33.0725C104.049 32.9063 104.204 32.7704 104.384 32.6766C104.563 32.5766 104.765 32.5257 104.97 32.529C105.103 32.5211 105.236 32.5415 105.361 32.5886C105.485 32.6358 105.599 32.7087 105.693 32.8026C105.784 32.898 105.855 33.0112 105.9 33.1351C105.946 33.2589 105.965 33.3908 105.957 33.5224V35.0846C105.96 35.1402 105.95 35.1959 105.926 35.2463C105.902 35.2967 105.865 35.3401 105.819 35.3725C105.692 35.4453 105.546 35.4779 105.4 35.4661V33.5908C105.406 33.5147 105.395 33.4382 105.367 33.3668C105.34 33.2954 105.297 33.231 105.242 33.178C105.187 33.125 105.12 33.0849 105.048 33.0604C104.975 33.036 104.898 33.0278 104.822 33.0365C104.696 33.038 104.573 33.0675 104.46 33.1229C104.35 33.1765 104.256 33.257 104.185 33.3569C104.118 33.4514 104.083 33.5649 104.084 33.6808V35.0846C104.089 35.1408 104.078 35.1972 104.054 35.2483C104.03 35.2994 103.993 35.3434 103.947 35.3761C103.816 35.4454 103.668 35.4766 103.52 35.4661L103.488 32.9861Z" fill="#F84D54"/>
<mask id="mask1_63_141" style="mask-type:alpha" maskUnits="userSpaceOnUse" x="-1" y="0" width="45" height="45">
<path d="M43.0837 0H-0.425781V45H43.0837V0Z" fill="#D9D9D9"/>
</mask>
<g mask="url(#mask1_63_141)">
<path d="M23.6001 33.2983C22.8422 36.9177 21.8229 39.2571 21.0849 40.2363C20.3469 39.2571 19.3309 36.9177 18.573 33.2983C18.4274 32.6098 18.2917 31.8712 18.1693 31.0925C18.1461 30.9522 18.1263 30.8152 18.1064 30.6781C17.9806 29.8359 17.8714 28.9436 17.7755 28.0045C17.7755 27.9009 17.7556 27.7973 17.7457 27.6937C17.6795 26.9484 17.6232 26.1731 17.5835 25.3543C17.5603 24.9299 17.5405 24.4987 17.5306 24.0542C17.5206 23.6098 17.5107 23.1419 17.5041 22.6706C17.5041 22.4701 17.5041 22.2729 17.5041 22.0691C17.5041 21.8652 17.5041 21.668 17.5041 21.4675C17.5041 20.9963 17.5041 20.5351 17.5306 20.0806C17.5306 19.713 17.5537 19.3554 17.5736 19.0011C17.577 18.941 17.577 18.8807 17.5736 18.8206C17.5752 18.8028 17.5752 18.7849 17.5736 18.7672C17.5531 18.3836 17.3861 18.023 17.1077 17.7612C16.8294 17.4995 16.4613 17.3569 16.081 17.3635C15.7837 17.3631 15.4928 17.4502 15.2437 17.6142L15.1147 17.691C14.8201 17.8715 14.5289 18.052 14.2443 18.2358C13.9597 18.4196 13.7479 18.57 13.503 18.717C12.9635 19.0512 12.4439 19.4155 11.9376 19.7731C11.8184 19.8533 11.7026 19.9335 11.5835 20.0204C10.6138 20.6888 9.70373 21.3873 8.8499 22.0691C8.24427 22.5537 7.67173 23.0316 7.13229 23.5128C2.7605 27.3862 0.520003 30.9856 1.69817 32.9674C2.28725 33.97 3.68384 34.4346 5.62318 34.4346C7.56252 34.4346 10.028 33.9734 12.8311 33.0978C12.8113 32.9741 12.7881 32.8471 12.7683 32.7301C12.6061 31.791 12.4671 30.8152 12.3546 29.8159C9.4125 30.7751 7.09919 31.1728 5.62318 31.1728C5.34188 31.1728 5.11352 31.1728 4.9315 31.1427C5.44116 30.0264 7.01315 28.0212 9.83611 25.5648C10.3788 25.097 10.9646 24.6157 11.6 24.1211C11.7092 24.0308 11.8251 23.9473 11.931 23.8571C12.616 23.3357 13.3573 22.7976 14.1483 22.2562C14.1483 23.1552 14.1715 24.0409 14.2079 24.9065C14.2079 25.2407 14.2343 25.5749 14.2542 25.9091C14.2741 26.2433 14.2906 26.4939 14.3105 26.788C14.3535 27.4096 14.4031 28.0212 14.466 28.6228C14.466 28.7698 14.4958 28.9102 14.5123 29.0539C14.6348 30.2069 14.787 31.3165 14.969 32.3759C15.0981 33.1278 15.2371 33.8497 15.396 34.5449C16.6469 40.1795 18.7253 43.8658 21.0783 43.8658C23.4313 43.8658 25.513 40.1895 26.7672 34.5449L26.4032 34.4145C25.513 34.087 24.5698 33.7027 23.6001 33.2983Z" fill="#ED1C24"/>
<path d="M11.2429 19.2767C8.52138 16.8337 7.02672 14.7971 6.55657 13.6756C7.76378 13.5216 10.2748 13.7994 13.7532 14.9327C14.4155 15.147 15.1159 15.3946 15.844 15.6735C15.9757 15.7228 16.103 15.7734 16.2303 15.8239C17.0144 16.1313 17.8332 16.4778 18.6854 16.8588C18.7742 16.91 18.8728 16.944 18.9665 16.9866C19.6379 17.2976 20.33 17.6321 21.0512 18.0023C21.4263 18.192 21.8054 18.3878 22.1911 18.5988C22.5767 18.8098 22.9824 19.0324 23.3893 19.2595C23.5611 19.3586 23.7299 19.456 23.9045 19.5567C24.0791 19.6574 24.248 19.7548 24.4198 19.8539C24.8234 20.0867 25.2184 20.3146 25.5944 20.562C25.9093 20.7436 26.204 20.9403 26.4975 21.1325C26.5473 21.1651 26.5989 21.1949 26.6521 21.2216C26.6665 21.2318 26.6818 21.2407 26.6979 21.248C27.0366 21.4198 27.4288 21.4537 27.792 21.3425C28.1552 21.2312 28.4611 20.9836 28.6454 20.6517C28.7942 20.3951 28.8649 20.1006 28.8488 19.8044L28.8474 19.6549C28.8399 19.3112 28.8308 18.9704 28.8155 18.6336C28.8002 18.2969 28.7771 18.0395 28.7735 17.7553C28.7566 17.124 28.7041 16.495 28.6507 15.8808C28.6415 15.7382 28.6306 15.5985 28.6157 15.4526C28.5274 14.2845 28.3836 13.153 28.2261 12.0783C28.1135 11.3155 27.99 10.5847 27.8472 9.88077C26.7128 4.18933 24.7488 0.474993 22.4631 0.513976C21.3102 0.527688 20.215 1.50502 19.2466 3.18087C18.2781 4.85672 17.442 7.21512 16.7922 10.07C16.908 10.1139 17.0283 10.1566 17.1384 10.1973C18.0237 10.5211 18.9289 10.8831 19.841 11.2796C20.4886 8.26331 21.3032 6.06783 22.0402 4.79235C22.1807 4.54927 22.2947 4.35194 22.4114 4.20951C23.1129 5.20139 24.0454 7.55047 24.7396 11.2035C24.8693 11.9036 24.9889 12.6476 25.0953 13.441C25.118 13.58 25.1317 13.7213 25.1561 13.8574C25.2606 14.707 25.3512 15.6134 25.42 16.5644C24.65 16.1202 23.8799 15.7027 23.1204 15.3065C22.8341 15.1414 22.5347 14.9992 22.2385 14.8512C21.9424 14.7033 21.7194 14.5938 21.4576 14.4656C20.9037 14.1957 20.3551 13.9364 19.8085 13.6936C19.6826 13.6209 19.5475 13.5773 19.4161 13.5206C18.3675 13.0568 17.3411 12.6402 16.3429 12.2741C15.6344 12.0141 14.9467 11.7776 14.272 11.5714C8.82136 9.86862 4.62633 9.84341 3.45133 11.8768C2.27634 13.9101 4.38548 17.5251 8.5937 21.3977L8.88712 21.1475C9.61218 20.54 10.4123 19.9149 11.2429 19.2767Z" fill="#ED1C24"/>
<path d="M35.4531 23.8417L35.1529 24.0786C34.3624 24.706 33.5519 25.3133 32.7414 25.8873C35.5865 28.3401 37.1675 30.3424 37.6845 31.4537C37.5011 31.4537 37.2709 31.4837 36.9874 31.4837C35.4965 31.4837 33.1683 31.0866 30.2065 30.1288C29.5127 29.9063 28.7856 29.6516 28.0251 29.3646L27.6148 29.2078C26.7943 28.8941 25.9471 28.5403 25.0566 28.1399C25.8637 27.6949 26.6487 27.2389 27.4114 26.7717L28.2819 26.2244C28.5388 26.0675 28.7856 25.8907 29.0324 25.7472C29.5727 25.4135 30.0997 25.0464 30.6067 24.6893L30.967 24.4457C31.9409 23.7783 32.8615 23.0775 33.722 22.4C34.3291 21.915 34.9061 21.4334 35.4531 20.9551C39.8759 17.0907 42.124 13.4999 40.9466 11.5177C40.3495 10.5165 38.9453 10.0527 36.9874 10.0527C35.0295 10.0527 32.5513 10.5132 29.7228 11.3875C29.7429 11.511 29.7695 11.6378 29.7895 11.7579C29.953 12.6957 30.0931 13.6734 30.2065 14.6646C33.1683 13.7102 35.4965 13.323 36.9874 13.323C37.2202 13.3216 37.4529 13.3328 37.6845 13.3564C37.1709 14.4677 35.5899 16.4833 32.7414 18.9194C32.1977 19.3899 31.6074 19.8672 30.967 20.3644L30.6334 20.6247C29.9463 21.1453 29.1958 21.6825 28.402 22.2232C28.3086 22.2899 28.2186 22.35 28.1252 22.41C27.487 22.855 26.8199 23.2888 26.1239 23.7115C25.757 23.9418 25.3834 24.1654 24.9999 24.3789C24.6163 24.5925 24.1827 24.8628 23.7624 25.0998C23.5823 25.2066 23.4022 25.3033 23.2254 25.4034L22.6817 25.7004C22.2581 25.934 21.8345 26.1576 21.421 26.3679C21.0074 26.5781 20.6705 26.7583 20.3036 26.9419L20.2435 26.9686C20.0227 27.0924 19.8389 27.2728 19.711 27.4913C19.583 27.7097 19.5156 27.9584 19.5156 28.2116C19.5156 28.4649 19.583 28.7135 19.711 28.932C19.8389 29.1505 20.0227 29.3309 20.2435 29.4547L20.2702 29.4714L20.3469 29.5081C20.3592 29.5167 20.3727 29.5235 20.387 29.5281L20.5004 29.5882L21.421 30.042L22.2281 30.4292C22.8152 30.7061 23.3922 30.9698 23.9659 31.2167L24.3628 31.3936C25.4746 31.8675 26.5475 32.2924 27.5815 32.6684C28.322 32.9353 29.0424 33.179 29.7429 33.3925C32.5713 34.2702 35.0795 34.7274 37.0074 34.7274C38.9353 34.7274 40.3695 34.2568 40.9666 33.2624C42.1306 31.3001 39.8759 27.7061 35.4531 23.8417Z" fill="#ED1C24"/>
</g>
</g>
</g>
<defs>
<clipPath id="clip0_63_141">
<rect width="117" height="46" fill="white"/>
</clipPath>
</defs>
</svg>
